<svg width="311" height="169" viewBox="0 0 311 169" fill="none" xmlns="http://www.w3.org/2000/svg">
<path d="M4.57764e-05 169V153.792H310.077V169H4.57764e-05Z" fill="#A1FFD9"/>
<path d="M0 107.255V25.3838H20.4311V107.255H0Z" fill="#F5F5F5"/>
<path d="M69.1279 91.0335V3.53561H89.559V91.0842L69.1279 91.0335Z" fill="#F5F5F5"/>
<path d="M228.122 108.776V23.863H302.473V108.776H228.122Z" fill="#F5F5F5"/>
<path d="M191.254 85.4563V25.2825H217.599V85.4563H191.254Z" fill="#F5F5F5"/>
<path d="M114.445 102.185V3.48402H140.79V102.185H114.445Z" fill="#F5F5F5"/>
<path d="M6.52875 106.748V28.2227H52.3835V106.748H6.52875Z" fill="#C4D1FE"/>
<path d="M59.1427 106.798V0.948414H133.493V106.798H59.1427Z" fill="#A1FFD9"/>
<path d="M140.56 106.697V84.1889H214.911V106.697H140.56Z" fill="#7AFFCB"/>
<path d="M221.977 106.748V28.2227H296.328V106.748H221.977Z" fill="#C4D1FE"/>
<path d="M4.57764e-05 149.635V110.955H310.077V149.635H4.57764e-05Z" fill="#8091FF"/>
<path d="M65.5179 17.2728V11.0881H93.6298V17.2728H65.5179Z" fill="#BFFEE6"/>
<path d="M65.5179 28.4255V22.2408H93.6298V28.4255H65.5179Z" fill="#31FEAE"/>
<path d="M227.891 83.175V76.9904H292.18V83.175H227.891Z" fill="#31FEAE"/>
<path d="M228.66 94.3277V88.143H292.948V94.3277H228.66Z" fill="#31FEAE"/>
<path d="M15.5922 40.5921V34.4074H43.7042V40.5921H15.5922Z" fill="#A1FEDA"/>
<path d="M15.5922 101.425V95.2402H43.7042V101.425H15.5922Z" fill="#3564FB"/>
<path d="M15.5922 73.5432V48.7031H43.7042V73.5432H15.5922Z" fill="#A2B8FF"/>
<path d="M96.2413 62.6439V45.0531H124.353V62.6439H96.2413Z" fill="#7D9CFF"/>
<path d="M63.2136 62.137V44.5462H91.3256V62.137H63.2136Z" fill="#3B5DCA"/>
<path d="M89.3286 98.1298V80.5389H117.441V98.1298H89.3286Z" fill="#597FF7"/>
<path d="M228.583 48.0441V35.4213H276.895V48.0441H228.583Z" fill="#BFFEE6"/>
<path d="M248.015 58.6391V49.5142H261.457V58.6391H248.015Z" fill="#5F84FB"/>
<path d="M248.015 71.8196V62.6946H261.457V71.8196H248.015Z" fill="#5F84FB"/>
<path d="M228.813 71.8196V62.6946H242.255V71.8196H228.813Z" fill="#5F84FB"/>
<path d="M228.813 58.6391V49.5142H242.255V58.6391H228.813Z" fill="#31FEAE"/>
<path d="M277.203 58.6391V49.5142H290.644V58.6391H277.203Z" fill="#7D9CFF"/>
<path d="M277.203 72.8334V63.7085H290.644V72.8334H277.203Z" fill="#AEBFF7"/>
<path d="M169.517 152.524C170.285 152.372 155.768 132.754 169.67 109.282H200.394C200.394 109.282 191.638 130.878 204.618 152.524C168.211 151.663 168.749 152.677 169.517 152.524Z" fill="#CCC8FF"/>
<path d="M29.4178 131.132C29.4178 131.132 43.3969 132.906 46.162 128.495L29.4178 131.132Z" fill="black"/>
<path d="M56.5312 131.132C55.6002 131.301 54.6496 131.42 53.6892 131.486C50.7705 131.639 46.2388 131.385 45.0099 128.495" fill="black"/>
<path d="M86.2562 124.034C86.2562 124.034 100.235 125.809 103 121.398L86.2562 124.034Z" fill="black"/>
<path d="M113.37 124.034C112.439 124.204 111.488 124.322 110.528 124.389C107.609 124.541 103.077 124.288 101.848 121.398" fill="black"/>
<path d="M94.7052 139.75C94.7052 139.75 108.684 141.524 111.449 137.113L94.7052 139.75Z" fill="black"/>
<path d="M121.819 139.75C120.888 139.919 119.937 140.038 118.977 140.104C116.058 140.256 111.526 140.003 110.297 137.113" fill="black"/>
<path d="M271.365 138.229C271.365 138.229 285.344 140.003 288.109 135.593L271.365 138.229Z" fill="black"/>
<path d="M298.479 138.229C297.548 138.398 296.597 138.517 295.637 138.584C292.718 138.736 288.186 138.482 286.957 135.593" fill="black"/>
<path d="M217.599 122.514C217.599 122.514 231.578 124.288 234.343 119.878L217.599 122.514Z" fill="black"/>
<path d="M244.713 122.514C243.782 122.683 242.831 122.802 241.871 122.868C238.952 123.021 234.42 122.767 233.191 119.878" fill="black"/>
<path d="M13.9792 143.653H13.2111C12.3627 143.653 11.6749 144.107 11.6749 144.667V155.313C11.6749 155.873 12.3627 156.327 13.2111 156.327H13.9792C14.8276 156.327 15.5153 155.873 15.5153 155.313V144.667C15.5153 144.107 14.8276 143.653 13.9792 143.653Z" fill="#606CB9"/>
<path d="M71.5857 143.653H70.8176C69.9692 143.653 69.2814 144.107 69.2814 144.667V155.313C69.2814 155.873 69.9692 156.327 70.8176 156.327H71.5857C72.4341 156.327 73.1219 155.873 73.1219 155.313V144.667C73.1219 144.107 72.4341 143.653 71.5857 143.653Z" fill="#606CB9"/>
<path d="M129.192 143.653H128.424C127.576 143.653 126.888 144.107 126.888 144.667V155.313C126.888 155.873 127.576 156.327 128.424 156.327H129.192C130.041 156.327 130.728 155.873 130.728 155.313V144.667C130.728 144.107 130.041 143.653 129.192 143.653Z" fill="#606CB9"/>
<path d="M33.1813 143.653H32.4132C31.5648 143.653 30.8771 144.107 30.8771 144.667V155.313C30.8771 155.873 31.5648 156.327 32.4132 156.327H33.1813C34.0297 156.327 34.7175 155.873 34.7175 155.313V144.667C34.7175 144.107 34.0297 143.653 33.1813 143.653Z" fill="#606CB9"/>
<path d="M90.7879 143.653H90.0198C89.1714 143.653 88.4836 144.107 88.4836 144.667V155.313C88.4836 155.873 89.1714 156.327 90.0198 156.327H90.7879C91.6363 156.327 92.3241 155.873 92.3241 155.313V144.667C92.3241 144.107 91.6363 143.653 90.7879 143.653Z" fill="#606CB9"/>
<path d="M148.394 143.653H147.626C146.778 143.653 146.09 144.107 146.09 144.667V155.313C146.09 155.873 146.778 156.327 147.626 156.327H148.394C149.243 156.327 149.931 155.873 149.931 155.313V144.667C149.931 144.107 149.243 143.653 148.394 143.653Z" fill="#606CB9"/>
<path d="M52.3835 143.653H51.6154C50.767 143.653 50.0793 144.107 50.0793 144.667V155.313C50.0793 155.873 50.767 156.327 51.6154 156.327H52.3835C53.2319 156.327 53.9197 155.873 53.9197 155.313V144.667C53.9197 144.107 53.2319 143.653 52.3835 143.653Z" fill="#606CB9"/>
<path d="M109.99 143.653H109.222C108.374 143.653 107.686 144.107 107.686 144.667V155.313C107.686 155.873 108.374 156.327 109.222 156.327H109.99C110.838 156.327 111.526 155.873 111.526 155.313V144.667C111.526 144.107 110.838 143.653 109.99 143.653Z" fill="#606CB9"/>
<path d="M13.5951 145.681C13.9024 145.174 24.502 154.299 33.1046 145.681H13.5951Z" fill="black"/>
<path d="M32.7973 146.188C33.1045 145.681 43.7042 154.806 52.3067 146.188H32.7973Z" fill="black"/>
<path d="M51.9995 145.174C52.3067 144.667 62.9063 153.792 71.5089 145.174H51.9995Z" fill="black"/>
<path d="M71.2017 146.188C71.5089 145.681 82.1085 154.806 90.7111 146.188H71.2017Z" fill="black"/>
<path d="M91.1719 145.174C91.4792 144.667 102.079 153.792 110.681 145.174H91.1719Z" fill="black"/>
<path d="M109.606 147.202C109.913 146.695 120.513 155.82 129.115 147.202H109.606Z" fill="black"/>
<path d="M128.808 146.188C129.115 145.681 139.715 154.806 148.318 146.188H128.808Z" fill="black"/>
</svg>
