<svg width="513" height="513" viewBox="0 0 513 513" fill="none" xmlns="http://www.w3.org/2000/svg">
<path d="M256.515 512.959C397.9 512.959 512.515 398.344 512.515 256.959C512.515 115.574 397.9 0.958984 256.515 0.958984C115.13 0.958984 0.514755 115.574 0.514755 256.959C0.514755 398.344 115.13 512.959 256.515 512.959Z" fill="#4793FF"/>
<path d="M512.515 256.959C512.515 255.411 512.484 253.87 512.456 252.328L378.936 118.808L59.9718 349.795L220.619 510.442C232.35 512.088 244.33 512.959 256.515 512.959C397.9 512.959 512.515 398.344 512.515 256.959V256.959Z" fill="#424FDD"/>
<path d="M412.114 192.97C409.502 192.97 406.931 193.138 404.398 193.432C404.647 190.595 404.782 187.725 404.782 184.823C404.782 131.11 361.239 87.5659 307.525 87.5659C262.79 87.5659 225.115 117.771 213.768 158.898C210.165 158.424 206.491 158.176 202.759 158.176C156.597 158.176 119.174 195.598 119.174 241.761C119.174 287.924 156.596 325.346 202.759 325.346H412.114C448.669 325.346 478.302 295.713 478.302 259.158C478.301 222.604 448.668 192.97 412.114 192.97Z" fill="white"/>
<path d="M478.301 259.156C478.301 295.713 448.669 325.345 412.112 325.345H298.738V87.9599C301.633 87.6939 304.563 87.5649 307.527 87.5649C361.242 87.5649 404.784 131.107 404.784 184.821C404.784 187.725 404.647 190.594 404.397 193.43C406.932 193.138 409.5 192.966 412.112 192.966C448.669 192.966 478.301 222.607 478.301 259.156V259.156Z" fill="#676767"/>
<path d="M325.668 239.266C323.056 239.266 320.485 239.434 317.953 239.728C318.202 236.891 318.336 234.021 318.336 231.119C318.336 177.406 274.793 133.862 221.079 133.862C176.344 133.862 138.669 164.067 127.322 205.194C123.719 204.72 120.045 204.472 116.313 204.472C70.1497 204.472 32.7278 241.894 32.7278 288.057C32.7278 334.22 70.1497 371.642 116.313 371.642H325.668C362.223 371.642 391.856 342.009 391.856 305.454C391.856 268.9 362.223 239.266 325.668 239.266V239.266Z" fill="#363636"/>
<path d="M391.856 305.452C391.856 342.009 362.224 371.642 325.667 371.642H212.292V134.256C215.187 133.99 218.117 133.861 221.081 133.861C274.796 133.861 318.338 177.403 318.338 231.118C318.338 234.022 318.2 236.892 317.951 239.727C320.486 239.435 323.054 239.263 325.666 239.263C362.224 239.262 391.856 268.903 391.856 305.452Z" fill="#3F4443"/>
</svg>
