<svg viewBox="0 0 454 366">
      <path fill="#12bcff"
            d="M340 110c-40 0-75-14-110-26-30-11-61-21-92-27-35-6-65 6-89 34a28 28 0 0 1-40 3C-3 83-3 66 8 54 53 1 110-9 174 7c36 9 71 25 106 36 19 5 39 10 58 11 27 2 48-13 65-33 12-13 29-15 41-5s13 28 1 41c-28 33-63 53-105 53zM120 312c-27-1-51 11-70 34-11 13-29 15-41 4-12-10-12-28-1-40 45-53 103-63 167-47 37 10 72 25 108 36 18 6 37 10 55 11 27 2 47-12 64-32 8-9 17-15 30-12 21 4 29 28 16 45-37 45-85 65-143 51-34-8-66-21-99-32-27-9-53-18-86-18zM123 128c42 1 81 15 120 29 26 9 52 18 79 24 28 6 53-3 74-24l11-11c11-11 27-11 39-1 10 10 11 26 1 38-35 43-81 64-137 52-34-7-67-20-100-32-29-10-59-20-91-19-28 1-51 13-69 34-12 13-29 15-41 4s-12-28 0-41c30-35 68-52 114-53z"/>
    </svg>
