<svg id="Capa_1" enable-background="new 0 0 424.253 424.253" height="512" viewBox="0 0 424.253 424.253" width="512" xmlns="http://www.w3.org/2000/svg"><g><g><g fill="#fcd462"><circle cx="302.676" cy="160.214" r="84.159"/><path d="m299.733 38.69h5.937v28.436h-5.937z"/><path d="m299.733 253.353h5.937v28.436h-5.937z"/><path d="m395.816 157.271h28.436v5.937h-28.436z"/><path d="m181.152 157.271h28.436v5.937h-28.436z"/><path d="m364.437 81.398h28.438v5.938h-28.438z" transform="matrix(.707 -.707 .707 .707 51.176 292.345)"/><path d="m212.574 233.113h28.438v5.938h-28.438z" transform="matrix(.707 -.707 .707 .707 -100.511 229.63)"/><path d="m375.59 221.91h5.937v28.436h-5.937z" transform="matrix(.707 -.707 .707 .707 -56.091 336.842)"/><path d="m223.814 70.153h5.937v28.436h-5.937z" transform="matrix(.707 -.707 .707 .707 6.763 185.071)"/><path d="m258.647 46.845h5.937v28.437h-5.937z" transform="matrix(.924 -.383 .383 .924 -3.453 104.766)"/><path d="m340.796 245.128h5.937v28.435h-5.937z" transform="matrix(.924 -.383 .383 .924 -73.119 151.445)"/><path d="m387.639 116.16h28.437v5.937h-28.437z" transform="matrix(.924 -.383 .383 .924 -14.999 162.856)"/><path d="m189.359 198.272h28.437v5.937h-28.437z" transform="matrix(.924 -.383 .383 .924 -61.516 93.226)"/><path d="m329.553 58.096h28.437v5.937h-28.437z" transform="matrix(.383 -.924 .924 .383 155.797 355.298)"/><path d="m247.404 256.465h28.435v5.937h-28.435z" transform="matrix(.383 -.924 .924 .383 -78.233 401.737)"/><path d="m398.912 187.129h5.937v28.437h-5.937z" transform="matrix(.383 -.924 .924 .383 62.065 495.582)"/><path d="m200.566 104.974h5.937v28.437h-5.937z" transform="matrix(.383 -.924 .924 .383 15.525 261.62)"/></g><path d="m339.044 232.65c7.247-42.953-21.697-83.647-64.65-90.895-4.517-.762-9.092-1.129-13.673-1.097-15.817-.026-31.281 4.682-44.399 13.519-30.04-38.731-85.789-45.776-124.52-15.738-25.744 19.967-38.479 52.436-33.174 84.582-42.309 11.466-67.311 55.059-55.845 97.368s55.059 67.311 97.368 55.845c10.403-2.82 20.125-7.729 28.568-14.428 30.714 31.275 80.966 31.73 112.241 1.016 2.232-2.191 4.332-4.513 6.29-6.953 27.501 34.136 77.466 39.515 111.601 12.015 34.136-27.501 39.515-77.466 12.015-111.601-8.397-10.422-19.293-18.553-31.674-23.634h-.15v.001z" fill="#e1e6e9"/></g></g></svg>